<svg width="71" height="70" viewBox="0 0 71 70" fill="none" xmlns="http://www.w3.org/2000/svg">
<path fill-rule="evenodd" clip-rule="evenodd" d="M4.35828 23.8895L20.0705 8.17728H50.9295L66.6417 23.8895V46.1105L50.9295 61.8227H20.0705L4.35828 46.1105V23.8895Z" stroke="#7FFF00" stroke-width="6" stroke-miterlimit="10" stroke-linejoin="round"/>
<path d="M45.4208 28.4747C45.4208 29.9222 45.001 31.2516 44.1613 32.463C43.3217 33.6744 42.1116 34.6576 40.5311 35.4125C38.9535 36.1673 37.2336 36.6018 35.3712 36.716L34.2992 42.0973C33.7965 44.585 32.3991 45.8288 30.1067 45.8288C28.901 45.8288 27.7926 45.5123 26.7816 44.8794C25.7705 44.249 24.9701 43.3074 24.3803 42.0545C23.7934 40.799 23.5 39.2763 23.5 37.4864C23.5 34.179 24.1043 31.3593 25.3129 29.0272C26.5216 26.6926 28.1573 24.9377 30.2201 23.7626C32.2858 22.5875 34.5592 22 37.0403 22C38.8068 22 40.319 22.284 41.577 22.8521C42.8351 23.4176 43.7895 24.1907 44.4403 25.1712C45.094 26.1518 45.4208 27.2529 45.4208 28.4747ZM36.0598 33.2023C38.8954 32.8807 40.3132 31.3761 40.3132 28.6887C40.3132 27.7808 39.9806 27.0441 39.3152 26.4786C38.6528 25.9105 37.5822 25.6265 36.1034 25.6265C34.4038 25.6265 32.9162 26.1102 31.6408 27.0778C30.3653 28.0454 29.3702 29.415 28.6555 31.1868C27.9437 32.9585 27.5878 34.9948 27.5878 37.2957C27.5878 38.2425 27.691 39.0726 27.8972 39.786C28.1064 40.4994 28.3461 41.0208 28.6163 41.3502C28.8894 41.6796 29.0913 41.8444 29.2221 41.8444C29.3615 41.8444 29.5184 41.4306 29.6927 40.6031L30.4772 36.5914C30.2128 36.2179 30.1256 36.0389 30.2157 36.0545C29.4574 36.2776 28.9606 36.2309 28.7253 35.9144C28.4899 35.5979 28.3723 35.2218 28.3723 34.786C28.3723 34.3035 28.5364 33.9092 28.8647 33.6031C29.193 33.2944 29.6346 33.1401 30.1896 33.1401C30.4016 33.1401 30.5687 33.1505 30.6907 33.1712C31.0975 33.2335 31.2878 33.3165 31.2616 33.4202C31.3401 32.3619 31.5928 30.7873 32.0199 28.6965C32.1536 28.0169 32.4688 27.5279 32.9656 27.2296C33.4624 26.9313 34.0275 26.7821 34.6609 26.7821C35.3843 26.7821 35.9349 26.9274 36.3126 27.2179C36.6903 27.5058 36.8791 27.9403 36.8791 28.5214C36.8791 28.8119 36.8573 29.0506 36.8137 29.2374L36.0598 33.2023ZM44.3512 47C43.8311 47 43.3939 46.8781 43.0394 46.6342C42.685 46.3904 42.5077 46.0117 42.5077 45.4981C42.5077 45.3113 42.5411 45.1038 42.608 44.8755C42.7968 44.1595 42.9392 43.5006 43.035 42.8988C43.1309 42.297 43.1789 41.6252 43.1789 40.8833C43.1789 39.9624 43.4389 39.2348 43.9589 38.7004C44.4819 38.166 45.1574 37.8988 45.9854 37.8988C46.7873 37.8988 47.4061 38.1051 47.8419 38.5175C48.2806 38.9274 48.5 39.4604 48.5 40.1167C48.5 40.7341 48.3039 41.5253 47.9117 42.4903C47.5194 43.4527 47.0488 44.3826 46.4997 45.2802C46.1191 45.9079 45.7908 46.3515 45.5148 46.6109C45.2388 46.8703 44.8509 47 44.3512 47Z" fill="white"/>
</svg>
