<svg width="71" height="70" viewBox="0 0 71 70" fill="none" xmlns="http://www.w3.org/2000/svg">
<path fill-rule="evenodd" clip-rule="evenodd" d="M4.49988 23.7122L20.2121 8H51.0711L66.7834 23.7122V45.9332L51.0711 61.6454H20.2121L4.49988 45.9332V23.7122Z" stroke="#4C4C4C" stroke-width="6" stroke-miterlimit="10" stroke-linejoin="round"/>
<path d="M35.5 22V32L33.385 44.662L31.5 46H25.5L23.766 43.006L34.579 22.609L35.5 22Z" fill="#4C4C4C"/>
<path d="M36.5 23C36.5 22.4477 36.0523 22 35.5 22C34.9477 22 34.5 22.4477 34.5 23C34.5 23.5523 34.9477 24 35.5 24C36.0523 24 36.5 23.5523 36.5 23Z" fill="#4C4C4C"/>
<path d="M33.5 44C33.5 42.8954 32.6046 42 31.5 42C30.3954 42 29.5 42.8954 29.5 44C29.5 45.1046 30.3954 46 31.5 46C32.6046 46 33.5 45.1046 33.5 44Z" fill="#4C4C4C"/>
<path d="M27.5 44C27.5 42.8954 26.6046 42 25.5 42C24.3954 42 23.5 42.8954 23.5 44C23.5 45.1046 24.3954 46 25.5 46C26.6046 46 27.5 45.1046 27.5 44Z" fill="#4C4C4C"/>
<path d="M35.5 22V32L37.615 44.662L39.5 46H45.5L47.234 43.006L36.421 22.609L35.5 22Z" fill="#4C4C4C"/>
<path d="M41.5 44C41.5 42.8954 40.6046 42 39.5 42C38.3954 42 37.5 42.8954 37.5 44C37.5 45.1046 38.3954 46 39.5 46C40.6046 46 41.5 45.1046 41.5 44Z" fill="#4C4C4C"/>
<path d="M47.5 44C47.5 42.8954 46.6046 42 45.5 42C44.3954 42 43.5 42.8954 43.5 44C43.5 45.1046 44.3954 46 45.5 46C46.6046 46 47.5 45.1046 47.5 44Z" fill="#4C4C4C"/>
</svg>
